<svg aria-hidden="true" style="position: absolute; width: 0; height: 0; overflow: hidden;" version="1.1" xmlns="http://www.w3.org/2000/svg" xmlns:xlink="http://www.w3.org/1999/xlink">
<defs>
<symbol id="icon-forum" viewBox="0 0 24 24">
<path d="M17.016 12q0 0.422-0.305 0.703t-0.727 0.281h-9.984l-3.984 4.031v-14.016q0-0.422 0.281-0.703t0.703-0.281h12.984q0.422 0 0.727 0.281t0.305 0.703v9zM21 6q0.422 0 0.703 0.281t0.281 0.703v15l-3.984-3.984h-11.016q-0.422 0-0.703-0.281t-0.281-0.703v-2.016h12.984v-9h2.016z"></path>
</symbol>
<symbol id="icon-cloud_done" viewBox="0 0 24 24">
<path d="M9.984 17.016l6.609-6.609-1.406-1.406-5.203 5.156-2.063-2.063-1.406 1.406zM19.359 10.031q1.922 0.141 3.281 1.57t1.359 3.398q0 2.063-1.477 3.539t-3.539 1.477h-12.984q-2.484 0-4.242-1.758t-1.758-4.242q0-2.203 1.57-3.961t3.773-1.992q0.984-1.828 2.766-2.953t3.891-1.125q2.531 0 4.711 1.781t2.648 4.266z"></path>
</symbol>
<symbol id="icon-computer" viewBox="0 0 24 24">
<path d="M3.984 6v9.984h16.031v-9.984h-16.031zM20.016 18h3.984v2.016h-24v-2.016h3.984q-0.797 0-1.383-0.609t-0.586-1.406v-9.984q0-0.797 0.586-1.406t1.383-0.609h16.031q0.797 0 1.383 0.609t0.586 1.406v9.984q0 0.797-0.586 1.406t-1.383 0.609z"></path>
</symbol>
<symbol id="icon-speaker_group" viewBox="0 0 24 24">
<path d="M6 5.016v15.984h9.984v2.016h-9.984q-0.844 0-1.43-0.586t-0.586-1.43v-15.984h2.016zM11.484 12.516q0-1.031 0.75-1.781t1.781-0.75 1.758 0.75 0.727 1.781-0.727 1.758-1.758 0.727-1.781-0.727-0.75-1.758zM14.016 16.5q1.641 0 2.813-1.172t1.172-2.813-1.172-2.836-2.813-1.195-2.836 1.195-1.195 2.836 1.195 2.813 2.836 1.172zM14.016 3q-0.797 0-1.406 0.586t-0.609 1.43 0.586 1.406 1.43 0.563q0.797 0 1.383-0.563t0.586-1.406-0.586-1.43-1.383-0.586zM18.188 0.984q0.75 0 1.289 0.539t0.539 1.289v14.391q0 0.75-0.539 1.266t-1.289 0.516h-8.391q-0.75 0-1.266-0.516t-0.516-1.266v-14.391q0-0.75 0.516-1.289t1.266-0.539h8.391z"></path>
</symbol>
<symbol id="icon-bubble_chart" viewBox="0 0 24 24">
<path d="M10.406 8.813q0-2.016 1.383-3.422t3.398-1.406 3.422 1.406 1.406 3.422-1.406 3.398-3.422 1.383-3.398-1.383-1.383-3.398zM12.797 18q0-0.844 0.586-1.43t1.43-0.586 1.406 0.586 0.563 1.43-0.563 1.43-1.406 0.586-1.43-0.586-0.586-1.43zM3.984 14.391q0-1.313 0.938-2.25t2.297-0.938q1.313 0 2.25 0.914t0.938 2.273-0.938 2.273-2.25 0.914q-1.359 0-2.297-0.938t-0.938-2.25z"></path>
</symbol>
<symbol id="icon-account_balance" viewBox="0 0 24 24">
<path d="M11.484 0.984l9.516 5.016v2.016h-18.984v-2.016zM15.984 9.984h3v7.031h-3v-7.031zM2.016 21.984v-3h18.984v3h-18.984zM9.984 9.984h3v7.031h-3v-7.031zM3.984 9.984h3v7.031h-3v-7.031z"></path>
</symbol>
<symbol id="icon-account_balance_wallet" viewBox="0 0 24 24">
<path d="M15.984 13.5q0.609 0 1.055-0.422t0.445-1.078-0.445-1.078-1.055-0.422-1.055 0.422-0.445 1.078 0.445 1.078 1.055 0.422zM12 15.984v-7.969h9.984v7.969h-9.984zM21 18v0.984q0 0.797-0.609 1.406t-1.406 0.609h-13.969q-0.844 0-1.43-0.586t-0.586-1.43v-13.969q0-0.844 0.586-1.43t1.43-0.586h13.969q0.797 0 1.406 0.609t0.609 1.406v0.984h-9q-0.844 0-1.43 0.586t-0.586 1.43v7.969q0 0.844 0.586 1.43t1.43 0.586h9z"></path>
</symbol>
<symbol id="icon-chrome_reader_mode" viewBox="0 0 24 24">
<path d="M21 18.984v-12.984h-9v12.984h9zM21 3.984q0.797 0 1.406 0.609t0.609 1.406v12.984q0 0.797-0.609 1.406t-1.406 0.609h-18q-0.797 0-1.406-0.609t-0.609-1.406v-12.984q0-0.797 0.609-1.406t1.406-0.609h18zM12.984 14.484h7.031v1.5h-7.031v-1.5zM12.984 9.516h7.031v1.5h-7.031v-1.5zM12.984 12h7.031v1.5h-7.031v-1.5z"></path>
</symbol>
<symbol id="icon-done_all" viewBox="0 0 24 24">
<path d="M0.422 13.406l1.406-1.406 5.578 5.578-1.406 1.406zM22.219 5.578l1.453 1.406-12 12-5.625-5.578 1.453-1.406 4.172 4.172zM18 6.984l-6.328 6.375-1.406-1.406 6.328-6.375z"></path>
</symbol>
<symbol id="icon-group_work" viewBox="0 0 24 24">
<path d="M15.984 17.484q1.031 0 1.781-0.727t0.75-1.758-0.75-1.758-1.781-0.727-1.758 0.727-0.727 1.758 0.727 1.758 1.758 0.727zM9.516 8.016q0 1.031 0.727 1.758t1.758 0.727 1.758-0.727 0.727-1.758-0.727-1.781-1.758-0.75-1.758 0.75-0.727 1.781zM8.016 17.484q1.031 0 1.758-0.727t0.727-1.758-0.727-1.758-1.758-0.727-1.781 0.727-0.75 1.758 0.75 1.758 1.781 0.727zM12 2.016q4.125 0 7.055 2.93t2.93 7.055-2.93 7.055-7.055 2.93-7.055-2.93-2.93-7.055 2.93-7.055 7.055-2.93z"></path>
</symbol>
<symbol id="icon-settings_input_component" viewBox="0 0 24 24">
<path d="M17.016 15.984v-1.969h6v1.969q0 0.984-0.563 1.734t-1.453 1.078v4.219h-2.016v-4.219q-1.969-0.703-1.969-2.813zM12.984 2.016v3.984h2.016v6h-6v-6h2.016v-3.984q0-0.422 0.281-0.727t0.703-0.305 0.703 0.305 0.281 0.727zM21 6h2.016v6h-6v-6h1.969v-3.984q0-0.422 0.305-0.727t0.727-0.305 0.703 0.305 0.281 0.727v3.984zM0.984 15.984v-1.969h6v1.969q0 2.109-1.969 2.813v4.219h-2.016v-4.219q-0.891-0.328-1.453-1.078t-0.563-1.734zM9 15.984v-1.969h6v1.969q0 0.984-0.563 1.734t-1.453 1.078v4.219h-1.969v-4.219q-0.891-0.328-1.453-1.078t-0.563-1.734zM5.016 2.016v3.984h1.969v6h-6v-6h2.016v-3.984q0-0.422 0.281-0.727t0.703-0.305 0.727 0.305 0.305 0.727z"></path>
</symbol>
<symbol id="icon-done_outline" viewBox="0 0 24 24">
<path d="M19.781 2.203l4.219 4.219-15.563 15.563-8.438-8.438 4.219-4.219 4.219 4.219zM19.781 5.016l-11.344 11.344-4.219-4.172-1.406 1.359 5.625 5.625 12.75-12.75z"></path>
</symbol>
<symbol id="icon-commute" viewBox="0 0 24 24">
<path d="M20.016 15.984q0.422 0 0.703-0.281t0.281-0.703-0.281-0.703-0.703-0.281-0.727 0.281-0.305 0.703 0.305 0.703 0.727 0.281zM12 15.984q0.422 0 0.703-0.281t0.281-0.703-0.281-0.703-0.703-0.281-0.703 0.281-0.281 0.703 0.281 0.703 0.703 0.281zM12.422 9.984l-1.031 3h9.234l-1.031-3h-7.172zM20.578 9.656l1.406 4.125v5.484q0 0.281-0.211 0.516t-0.492 0.234h-0.609q-0.281 0-0.469-0.258t-0.188-0.539v-1.219h-8.016v1.219q0 0.281-0.211 0.539t-0.492 0.258h-0.609q-0.281 0-0.469-0.234t-0.188-0.516l-0.047-5.484 1.453-4.125q0.234-0.656 0.984-0.656h7.172q0.75 0 0.984 0.656zM5.016 14.016q-0.422 0-0.727 0.281t-0.305 0.703 0.305 0.703 0.727 0.281 0.703-0.281 0.281-0.703-0.281-0.703-0.703-0.281zM12 3.984q1.219 0 2.109 0.891t0.891 2.109v1.031h-2.016v-2.016h-9v6.984h5.016v5.016l-2.016-0.047-1.969 2.063h-1.031v-1.031l1.031-0.984q-1.219 0-2.109-0.891t-0.891-2.109v-8.016q0-1.219 0.891-2.109t2.109-0.891h6.984z"></path>
</symbol>
<symbol id="icon-museum" viewBox="0 0 24 24">
<path d="M15.984 18v-6.984h-1.969l-2.016 3-2.016-3h-1.969v6.984h1.969v-3.984l2.016 3 2.016-3v3.984h1.969zM21.984 11.016h-1.969v9h1.969v1.969h-19.969v-1.969h1.969v-9h-1.969v-2.016l9.984-6.984 9.984 6.984v2.016z"></path>
</symbol>
<symbol id="icon-theater_comedy" viewBox="0 0 24 24">
<path d="M18.984 8.063q0.422 0 0.727-0.281t0.305-0.703-0.305-0.703-0.727-0.281-0.703 0.281-0.281 0.703 0.281 0.703 0.703 0.281zM14.016 8.063q0.422 0 0.703-0.281t0.281-0.703-0.281-0.703-0.703-0.281-0.727 0.281-0.305 0.703 0.305 0.703 0.727 0.281zM11.016 3h10.969v6.516q0 2.297-1.594 3.891t-3.891 1.594q-1.266 0-2.484-0.609v-2.906h4.969q0-0.609-0.727-1.055t-1.758-0.445-1.758 0.445-0.727 1.055v-2.484h-3v-6zM5.016 12.984q-0.422 0-0.727 0.305t-0.305 0.727 0.305 0.703 0.727 0.281 0.703-0.281 0.281-0.703-0.281-0.727-0.703-0.305zM9.984 12.984q-0.422 0-0.703 0.305t-0.281 0.727 0.281 0.703 0.703 0.281 0.727-0.281 0.305-0.703-0.305-0.727-0.727-0.305zM7.5 18.516q1.031 0 1.758-0.445t0.727-1.055h-4.969q0 0.609 0.727 1.055t1.758 0.445zM2.016 16.5v-6.516h10.969v6.516q0 2.297-1.594 3.891t-3.891 1.594-3.891-1.594-1.594-3.891z"></path>
</symbol>
<symbol id="icon-business_center" viewBox="0 0 24 24">
<path d="M14.016 6.984v-1.969h-4.031v1.969h4.031zM20.016 6.984q0.797 0 1.383 0.609t0.586 1.406v3q0 0.797-0.586 1.406t-1.383 0.609h-6v-2.016h-4.031v2.016h-6q-0.844 0-1.406-0.586t-0.563-1.43v-3q0-0.797 0.586-1.406t1.383-0.609h3.984v-1.969l2.016-2.016h3.984l2.016 2.016v1.969h4.031zM9.984 15.984h4.031v-0.984h6.984v3.984q0 0.844-0.586 1.43t-1.43 0.586h-13.969q-0.844 0-1.43-0.586t-0.586-1.43v-3.984h6.984v0.984z"></path>
</symbol>
<symbol id="icon-add_business" viewBox="0 0 24 24">
<path d="M15 17.016h2.016v-3h0.984v-2.016l-0.984-5.016h-15l-1.031 5.016v2.016h1.031v6h9v-6h3.984v3zM9 18h-5.016v-3.984h5.016v3.984zM2.016 3.984h15v2.016h-15v-2.016zM20.016 18v-3h-2.016v3h-3v2.016h3v3h2.016v-3h3v-2.016h-3z"></path>
</symbol>
<symbol id="icon-cleaning_services" viewBox="0 0 24 24">
<path d="M15.984 11.016h-0.984v-8.016q0-0.844-0.586-1.43t-1.43-0.586h-1.969q-0.844 0-1.43 0.586t-0.586 1.43v8.016h-0.984q-1.406 0-2.531 0.656t-1.805 1.805-0.68 2.508v7.031h18v-7.031q0-1.359-0.68-2.508t-1.805-1.805-2.531-0.656zM18.984 21h-1.969v-3q0-0.422-0.305-0.703t-0.727-0.281q-0.375 0-0.68 0.281t-0.305 0.703v3h-2.016v-3q0-0.422-0.281-0.703t-0.703-0.281-0.703 0.281-0.281 0.703v3h-2.016v-3q0-0.422-0.305-0.703t-0.68-0.281q-0.422 0-0.727 0.281t-0.305 0.703v3h-1.969v-5.016q0-0.797 0.398-1.477t1.078-1.102 1.523-0.422h7.969q0.844 0 1.523 0.422t1.078 1.102 0.398 1.477v5.016z"></path>
</symbol>
<symbol id="icon-comment_bank" viewBox="0 0 24 24">
<path d="M20.016 2.016h-16.031q-0.797 0-1.383 0.586t-0.586 1.383v18l3.984-3.984h14.016q0.797 0 1.383-0.586t0.586-1.43v-12q0-0.797-0.586-1.383t-1.383-0.586zM18.984 12.984l-2.484-1.5-2.484 1.5v-7.969h4.969v7.969z"></path>
</symbol>
<symbol id="icon-countertops" viewBox="0 0 24 24">
<path d="M18 9.984v-3q0-0.797-0.398-1.477t-1.078-1.102-1.523-0.422-1.523 0.422-1.078 1.102-0.398 1.477h2.016q0-0.375 0.281-0.68t0.703-0.305 0.703 0.305 0.281 0.68v3h-7.969q0.797 0 1.383-0.586t0.586-1.383v-4.031h-6v4.031q0 0.797 0.586 1.383t1.43 0.586h-3.984v2.016h1.969v8.016h16.031v-8.016h1.969v-2.016h-3.984zM12.984 18h-1.969v-6h1.969v6z"></path>
</symbol>
<symbol id="icon-mark_chat_read" viewBox="0 0 24 24">
<path d="M17.344 20.016l-3.563-3.563 1.406-1.406 2.156 2.109 4.219-4.219 1.453 1.406zM12 17.016q0-1.453 0.539-2.719t1.5-2.227 2.227-1.523 2.719-0.563q0.844 0 1.594 0.188t1.406 0.516v-6.703q0-0.797-0.586-1.383t-1.383-0.586h-16.031q-0.797 0-1.383 0.586t-0.586 1.383v18l3.984-3.984h6q0-0.234 0.047-0.516-0.047-0.234-0.047-0.469z"></path>
</symbol>
<symbol id="icon-mark_chat_unread" viewBox="0 0 24 24">
<path d="M21.984 6.984v9q0 0.844-0.586 1.43t-1.383 0.586h-14.016l-3.984 3.984v-18q0-0.797 0.586-1.383t1.383-0.586h10.125q-0.047 0.234-0.070 0.492t-0.023 0.492q0 1.359 0.656 2.508t1.805 1.828 2.508 0.68q0.844 0 1.617-0.281t1.383-0.75zM15.984 3q0 0.844 0.422 1.523t1.102 1.078 1.477 0.398q0.844 0 1.523-0.398t1.078-1.078 0.398-1.523-0.398-1.523-1.078-1.078-1.523-0.398q-0.797 0-1.477 0.398t-1.102 1.078-0.422 1.523z"></path>
</symbol>
<symbol id="icon-miscellaneous_services" viewBox="0 0 24 24">
<path d="M14.156 13.688l1.406-2.391q0.141-0.281-0.094-0.469l-1.453-1.125q0.047-0.375 0.047-0.703t-0.047-0.703l1.453-1.125q0.234-0.234 0.094-0.469l-1.406-2.438q-0.141-0.234-0.422-0.141l-1.734 0.703q-0.563-0.422-1.172-0.703l-0.281-1.828q-0.047-0.281-0.328-0.281h-2.813q-0.281 0-0.328 0.281l-0.281 1.875q-0.656 0.234-1.172 0.656l-1.734-0.703q-0.281-0.094-0.422 0.188l-1.406 2.391q-0.188 0.281 0.047 0.469l1.5 1.125q-0.047 0.375-0.047 0.703t0.047 0.703l-1.5 1.125q-0.234 0.234-0.047 0.469l1.406 2.438q0.141 0.234 0.422 0.141l1.734-0.703q0.563 0.422 1.172 0.703l0.281 1.828q0.047 0.281 0.328 0.281h2.813q0.281 0 0.328-0.281l0.281-1.875q0.656-0.234 1.172-0.656l1.734 0.703q0.281 0.094 0.422-0.188zM8.813 11.016q-0.844 0-1.43-0.586t-0.586-1.43 0.586-1.43 1.43-0.586 1.43 0.586 0.586 1.43-0.586 1.43-1.43 0.586zM21.938 18.656l-0.984-0.703q0-0.141 0.023-0.234t0.023-0.234q0-0.234-0.047-0.422l0.938-0.75q0.188-0.141 0.047-0.281l-0.891-1.547q-0.047-0.188-0.281-0.094l-1.078 0.422q-0.375-0.281-0.797-0.422l-0.141-1.172q-0.047-0.234-0.234-0.234h-1.781q-0.188 0-0.234 0.188l-0.141 1.219q-0.234 0.047-0.422 0.164t-0.328 0.258l-1.125-0.469q-0.188-0.047-0.281 0.094l-0.891 1.594q-0.094 0.141 0.047 0.281l0.938 0.75q-0.047 0.188-0.047 0.422t0.047 0.422l-0.938 0.75q-0.141 0.141-0.047 0.281l0.891 1.547q0.094 0.188 0.281 0.094l1.125-0.422q0.328 0.281 0.75 0.422l0.141 1.172q0.047 0.188 0.234 0.188h1.781q0.234 0 0.234-0.188l0.188-1.172 0.375-0.188t0.375-0.234l1.125 0.422q0.141 0.094 0.234-0.094l0.938-1.547q0.094-0.141-0.047-0.281zM17.625 18.844q-0.563 0-0.961-0.398t-0.398-0.961 0.398-0.961 0.961-0.398 0.961 0.398 0.398 0.961-0.398 0.961-0.961 0.398z"></path>
</symbol>
<symbol id="icon-groups" viewBox="0 0 24 24">
<path d="M12 12.75q1.219 0 2.297 0.258t1.922 0.633 1.313 1.125 0.469 1.594v1.641h-12v-1.594q0-0.891 0.469-1.641t1.313-1.125 1.922-0.633 2.297-0.258zM3.984 12.984q0.844 0 1.43-0.586t0.586-1.383q0-0.844-0.586-1.43t-1.43-0.586q-0.797 0-1.383 0.586t-0.586 1.43q0 0.797 0.586 1.383t1.383 0.586zM5.109 14.109q-0.234-0.047-0.516-0.070t-0.609-0.023q-0.75 0-1.43 0.141t-1.336 0.422q-0.563 0.234-0.891 0.75t-0.328 1.125v1.547h4.5v-1.594q0-1.219 0.609-2.297zM20.016 12.984q0.797 0 1.383-0.586t0.586-1.383q0-0.844-0.586-1.43t-1.383-0.586q-0.844 0-1.43 0.586t-0.586 1.43q0 0.797 0.586 1.383t1.43 0.586zM24 16.453q0-0.609-0.328-1.125t-0.891-0.75q-0.656-0.281-1.336-0.422t-1.43-0.141q-0.328 0-0.609 0.023t-0.516 0.070q0.609 1.078 0.609 2.297v1.594h4.5v-1.547zM12 6q0.844 0 1.523 0.398t1.078 1.078 0.398 1.523-0.398 1.523-1.078 1.078-1.523 0.398-1.523-0.398-1.078-1.078-0.398-1.523 0.398-1.523 1.078-1.078 1.523-0.398z"></path>
</symbol>
<symbol id="icon-question-circle" viewBox="0 0 24 28">
<path d="M14 21.5v-3c0-0.281-0.219-0.5-0.5-0.5h-3c-0.281 0-0.5 0.219-0.5 0.5v3c0 0.281 0.219 0.5 0.5 0.5h3c0.281 0 0.5-0.219 0.5-0.5zM18 11c0-2.859-3-5-5.688-5-2.547 0-4.453 1.094-5.797 3.328-0.141 0.219-0.078 0.5 0.125 0.656l2.063 1.563c0.078 0.063 0.187 0.094 0.297 0.094 0.141 0 0.297-0.063 0.391-0.187 0.734-0.938 1.047-1.219 1.344-1.437 0.266-0.187 0.781-0.375 1.344-0.375 1 0 1.922 0.641 1.922 1.328 0 0.812-0.422 1.219-1.375 1.656-1.109 0.5-2.625 1.797-2.625 3.313v0.562c0 0.281 0.219 0.5 0.5 0.5h3c0.281 0 0.5-0.219 0.5-0.5v0c0-0.359 0.453-1.125 1.188-1.547 1.188-0.672 2.812-1.578 2.812-3.953zM24 14c0 6.625-5.375 12-12 12s-12-5.375-12-12 5.375-12 12-12 12 5.375 12 12z"></path>
</symbol>
<symbol id="icon-info-circle" viewBox="0 0 24 28">
<path d="M16 21.5v-2.5c0-0.281-0.219-0.5-0.5-0.5h-1.5v-8c0-0.281-0.219-0.5-0.5-0.5h-5c-0.281 0-0.5 0.219-0.5 0.5v2.5c0 0.281 0.219 0.5 0.5 0.5h1.5v5h-1.5c-0.281 0-0.5 0.219-0.5 0.5v2.5c0 0.281 0.219 0.5 0.5 0.5h7c0.281 0 0.5-0.219 0.5-0.5zM14 7.5v-2.5c0-0.281-0.219-0.5-0.5-0.5h-3c-0.281 0-0.5 0.219-0.5 0.5v2.5c0 0.281 0.219 0.5 0.5 0.5h3c0.281 0 0.5-0.219 0.5-0.5zM24 14c0 6.625-5.375 12-12 12s-12-5.375-12-12 5.375-12 12-12 12 5.375 12 12z"></path>
</symbol>
<symbol id="icon-compress" viewBox="0 0 24 28">
<path d="M12 15v7c0 0.547-0.453 1-1 1-0.266 0-0.516-0.109-0.703-0.297l-2.25-2.25-5.187 5.187c-0.094 0.094-0.234 0.156-0.359 0.156s-0.266-0.063-0.359-0.156l-1.781-1.781c-0.094-0.094-0.156-0.234-0.156-0.359s0.063-0.266 0.156-0.359l5.187-5.187-2.25-2.25c-0.187-0.187-0.297-0.438-0.297-0.703 0-0.547 0.453-1 1-1h7c0.547 0 1 0.453 1 1zM23.797 4.5c0 0.125-0.063 0.266-0.156 0.359l-5.187 5.187 2.25 2.25c0.187 0.187 0.297 0.438 0.297 0.703 0 0.547-0.453 1-1 1h-7c-0.547 0-1-0.453-1-1v-7c0-0.547 0.453-1 1-1 0.266 0 0.516 0.109 0.703 0.297l2.25 2.25 5.187-5.187c0.094-0.094 0.234-0.156 0.359-0.156s0.266 0.063 0.359 0.156l1.781 1.781c0.094 0.094 0.156 0.234 0.156 0.359z"></path>
</symbol>
<symbol id="icon-comment" viewBox="0 0 28 28">
<path d="M28 14c0 5.531-6.266 10-14 10-0.766 0-1.531-0.047-2.266-0.125-2.047 1.813-4.484 3.094-7.187 3.781-0.562 0.156-1.172 0.266-1.781 0.344-0.344 0.031-0.672-0.219-0.75-0.594v-0.016c-0.078-0.391 0.187-0.625 0.422-0.906 0.984-1.109 2.109-2.047 2.844-4.656-3.219-1.828-5.281-4.656-5.281-7.828 0-5.516 6.266-10 14-10s14 4.469 14 10z"></path>
</symbol>
<symbol id="icon-briefcase" viewBox="0 0 28 28">
<path d="M10 4h8v-2h-8v2zM28 14v7.5c0 1.375-1.125 2.5-2.5 2.5h-23c-1.375 0-2.5-1.125-2.5-2.5v-7.5h10.5v2.5c0 0.547 0.453 1 1 1h5c0.547 0 1-0.453 1-1v-2.5h10.5zM16 14v2h-4v-2h4zM28 6.5v6h-28v-6c0-1.375 1.125-2.5 2.5-2.5h5.5v-2.5c0-0.828 0.672-1.5 1.5-1.5h9c0.828 0 1.5 0.672 1.5 1.5v2.5h5.5c1.375 0 2.5 1.125 2.5 2.5z"></path>
</symbol>
<symbol id="icon-group" viewBox="0 0 30 28">
<path d="M9.266 14c-1.625 0.047-3.094 0.75-4.141 2h-2.094c-1.563 0-3.031-0.75-3.031-2.484 0-1.266-0.047-5.516 1.937-5.516 0.328 0 1.953 1.328 4.062 1.328 0.719 0 1.406-0.125 2.078-0.359-0.047 0.344-0.078 0.688-0.078 1.031 0 1.422 0.453 2.828 1.266 4zM26 23.953c0 2.531-1.672 4.047-4.172 4.047h-13.656c-2.5 0-4.172-1.516-4.172-4.047 0-3.531 0.828-8.953 5.406-8.953 0.531 0 2.469 2.172 5.594 2.172s5.063-2.172 5.594-2.172c4.578 0 5.406 5.422 5.406 8.953zM10 4c0 2.203-1.797 4-4 4s-4-1.797-4-4 1.797-4 4-4 4 1.797 4 4zM21 10c0 3.313-2.688 6-6 6s-6-2.688-6-6 2.688-6 6-6 6 2.688 6 6zM30 13.516c0 1.734-1.469 2.484-3.031 2.484h-2.094c-1.047-1.25-2.516-1.953-4.141-2 0.812-1.172 1.266-2.578 1.266-4 0-0.344-0.031-0.688-0.078-1.031 0.672 0.234 1.359 0.359 2.078 0.359 2.109 0 3.734-1.328 4.062-1.328 1.984 0 1.937 4.25 1.937 5.516zM28 4c0 2.203-1.797 4-4 4s-4-1.797-4-4 1.797-4 4-4 4 1.797 4 4z"></path>
</symbol>
<symbol id="icon-suitcase" viewBox="0 0 28 28">
<path d="M10 6h8v-2h-8v2zM4.5 6v20h-1c-1.922 0-3.5-1.578-3.5-3.5v-13c0-1.922 1.578-3.5 3.5-3.5h1zM22 6v20h-16v-20h2v-2.5c0-0.828 0.672-1.5 1.5-1.5h9c0.828 0 1.5 0.672 1.5 1.5v2.5h2zM28 9.5v13c0 1.922-1.578 3.5-3.5 3.5h-1v-20h1c1.922 0 3.5 1.578 3.5 3.5z"></path>
</symbol>
<symbol id="icon-eraser" viewBox="0 0 30 28">
<path d="M14 22l5.25-6h-12l-5.25 6h12zM29.828 5.172c0.313 0.719 0.187 1.547-0.328 2.141l-14 16c-0.375 0.438-0.922 0.688-1.5 0.688h-12c-0.781 0-1.5-0.453-1.828-1.172-0.313-0.719-0.187-1.547 0.328-2.141l14-16c0.375-0.438 0.922-0.688 1.5-0.688h12c0.781 0 1.5 0.453 1.828 1.172z"></path>
</symbol>
<symbol id="icon-stack-overflow" viewBox="0 0 24 28">
<path d="M20.141 25.5h-17.469v-7.5h-2.5v10h22.469v-10h-2.5v7.5zM5.422 17.313l0.516-2.453 12.234 2.578-0.516 2.438zM7.031 11.469l1.047-2.281 11.328 5.297-1.047 2.266zM10.172 5.906l1.594-1.922 9.594 8.016-1.594 1.922zM16.375 0l7.453 10.016-2 1.5-7.453-10.016zM5.156 22.984v-2.484h12.5v2.484h-12.5z"></path>
</symbol>
<symbol id="icon-language" viewBox="0 0 24 28">
<path d="M10.219 16.844c-0.031 0.109-0.797-0.25-1-0.328-0.203-0.094-1.125-0.609-1.359-0.766s-1.125-0.891-1.234-0.938v0c-0.562 0.859-1.281 1.875-2.094 2.828-0.281 0.328-1.125 1.391-1.641 1.719-0.078 0.047-0.531 0.094-0.594 0.063 0.25-0.187 0.969-1.078 1.281-1.437 0.391-0.453 2.25-3.047 2.562-3.641 0.328-0.594 1.312-2.562 1.359-2.75-0.156-0.016-1.391 0.406-1.719 0.516-0.313 0.094-1.172 0.297-1.234 0.344-0.063 0.063-0.016 0.25-0.047 0.313s-0.313 0.203-0.484 0.234c-0.156 0.047-0.516 0.063-0.734 0-0.203-0.047-0.391-0.25-0.438-0.328 0 0-0.063-0.094-0.078-0.359 0.187-0.063 0.5-0.078 0.844-0.172s1.188-0.344 1.641-0.5 1.328-0.484 1.594-0.547c0.281-0.047 0.984-0.516 1.359-0.641s0.641-0.281 0.656-0.203 0 0.422-0.016 0.516c-0.016 0.078-0.766 1.547-0.875 1.781-0.063 0.125-0.5 0.953-1.203 2.047 0.25 0.109 0.781 0.328 1 0.438 0.266 0.125 2.125 0.906 2.219 0.938s0.266 0.75 0.234 0.875zM7.016 9.25c0.047 0.266-0.031 0.375-0.063 0.438-0.156 0.297-0.547 0.5-0.781 0.594s-0.625 0.187-0.938 0.187c-0.141-0.016-0.422-0.063-0.766-0.406-0.187-0.203-0.328-0.75-0.266-0.688s0.516 0.125 0.719 0.078 0.688-0.187 0.906-0.25c0.234-0.078 0.703-0.203 0.859-0.219 0.156 0 0.281 0.063 0.328 0.266zM17.922 11.266l0.984 3.547-2.172-0.656zM0.609 23.766l10.844-3.625v-16.125l-10.844 3.641v16.109zM20 18.813l1.594 0.484-2.828-10.266-1.563-0.484-3.375 8.375 1.594 0.484 0.703-1.719 3.297 1.016zM12.141 3.781l8.953 2.875v-5.938zM17 24.453l2.469 0.203-0.844 2.5-0.625-1.031c-1.266 0.812-2.828 1.437-4.312 1.687-0.453 0.094-0.969 0.187-1.422 0.187h-1.313c-1.656 0-4.672-0.984-5.984-1.937-0.094-0.078-0.125-0.141-0.125-0.25 0-0.172 0.125-0.297 0.281-0.297 0.141 0 0.875 0.453 1.078 0.547 1.406 0.703 3.375 1.344 4.953 1.344 1.953 0 3.281-0.25 5.063-1.016 0.516-0.234 0.969-0.531 1.453-0.797zM24 7.594v16.859c-12.078-3.844-12.094-3.844-12.094-3.844-0.25 0.109-11.453 3.891-11.609 3.891-0.125 0-0.234-0.078-0.281-0.203 0-0.016-0.016-0.031-0.016-0.047v-16.844c0.016-0.047 0.031-0.125 0.063-0.156 0.094-0.109 0.219-0.141 0.313-0.172 0.047-0.016 1-0.328 2.328-0.781v-6l8.719 3.094c0.109-0.031 9.828-3.391 9.969-3.391 0.172 0 0.313 0.125 0.313 0.328v6.531z"></path>
</symbol>
<symbol id="icon-steam" viewBox="0 0 28 28">
<path d="M24.719 9.094c0 2.109-1.719 3.813-3.813 3.813-2.109 0-3.813-1.703-3.813-3.813s1.703-3.813 3.813-3.813c2.094 0 3.813 1.703 3.813 3.813zM12.688 20.687c0-2.172-1.734-3.906-3.906-3.906-0.281 0-0.562 0.031-0.844 0.094l1.625 0.656c1.594 0.641 2.375 2.438 1.734 4.031s-2.453 2.375-4.047 1.719c-0.641-0.25-1.281-0.516-1.922-0.766 0.656 1.234 1.953 2.078 3.453 2.078 2.172 0 3.906-1.734 3.906-3.906zM25.656 9.109c0-2.625-2.141-4.766-4.766-4.766-2.641 0-4.781 2.141-4.781 4.766 0 2.641 2.141 4.766 4.781 4.766 2.625 0 4.766-2.125 4.766-4.766zM28 9.109c0 3.938-3.187 7.109-7.109 7.109l-6.828 4.984c-0.25 2.688-2.531 4.797-5.281 4.797-2.531 0-4.672-1.797-5.187-4.188l-3.594-1.437v-6.703l6.078 2.453c0.797-0.484 1.719-0.75 2.703-0.75 0.187 0 0.375 0.016 0.547 0.031l4.438-6.359c0.031-3.891 3.219-7.047 7.125-7.047 3.922 0 7.109 3.187 7.109 7.109z"></path>
</symbol>
<symbol id="icon-steam-square" viewBox="0 0 24 28">
<path d="M19.406 10.109c0-1.656-1.359-3.016-3.031-3.016-1.656 0-3.016 1.359-3.016 3.016 0 1.672 1.359 3.016 3.016 3.016 1.672 0 3.031-1.344 3.031-3.016zM9.875 19.297c0 1.719-1.375 3.094-3.094 3.094-1.188 0-2.219-0.672-2.734-1.656 0.516 0.203 1.016 0.406 1.531 0.625 1.25 0.5 2.688-0.109 3.203-1.375 0.5-1.25-0.109-2.688-1.375-3.187l-1.281-0.516c0.203-0.047 0.438-0.078 0.656-0.078 1.719 0 3.094 1.375 3.094 3.094zM24 6.5v15c0 2.484-2.016 4.5-4.5 4.5h-15c-2.484 0-4.5-2.016-4.5-4.5v-2.391l2.688 1.078c0.406 1.891 2.094 3.313 4.094 3.313 2.187 0 3.984-1.672 4.188-3.797l5.391-3.938c3.125 0 5.641-2.531 5.641-5.625 0-3.125-2.516-5.641-5.641-5.641-3.078 0-5.594 2.5-5.625 5.578l-3.516 5.031c-0.141-0.016-0.281-0.016-0.438-0.016-0.781 0-1.516 0.203-2.141 0.578l-4.641-1.859v-7.313c0-2.484 2.016-4.5 4.5-4.5h15c2.484 0 4.5 2.016 4.5 4.5zM20.141 10.141c0 2.078-1.687 3.766-3.781 3.766-2.078 0-3.766-1.687-3.766-3.766 0-2.094 1.687-3.781 3.766-3.781 2.094 0 3.781 1.687 3.781 3.781z"></path>
</symbol>
<symbol id="icon-object-ungroup" viewBox="0 0 36 28">
<path d="M36 12h-2v10h2v6h-6v-2h-14v2h-6v-6h2v-2h-6v2h-6v-6h2v-10h-2v-6h6v2h14v-2h6v6h-2v2h6v-2h6v6zM32 8v2h2v-2h-2zM22 2v2h2v-2h-2zM2 2v2h2v-2h-2zM4 20v-2h-2v2h2zM24 18h-2v2h2v-2zM6 18h14v-2h2v-10h-2v-2h-14v2h-2v10h2v2zM14 26v-2h-2v2h2zM34 26v-2h-2v2h2zM32 22v-10h-2v-2h-6v6h2v6h-6v-2h-6v2h2v2h14v-2h2z"></path>
</symbol>
<symbol id="icon-balance-scale" viewBox="0 0 34 28">
<path d="M27 7l-6 11h12zM7 7l-6 11h12zM19.828 4c-0.297 0.844-0.984 1.531-1.828 1.828v20.172h9.5c0.281 0 0.5 0.219 0.5 0.5v1c0 0.281-0.219 0.5-0.5 0.5h-21c-0.281 0-0.5-0.219-0.5-0.5v-1c0-0.281 0.219-0.5 0.5-0.5h9.5v-20.172c-0.844-0.297-1.531-0.984-1.828-1.828h-7.672c-0.281 0-0.5-0.219-0.5-0.5v-1c0-0.281 0.219-0.5 0.5-0.5h7.672c0.422-1.172 1.516-2 2.828-2s2.406 0.828 2.828 2h7.672c0.281 0 0.5 0.219 0.5 0.5v1c0 0.281-0.219 0.5-0.5 0.5h-7.672zM17 4.25c0.688 0 1.25-0.562 1.25-1.25s-0.562-1.25-1.25-1.25-1.25 0.562-1.25 1.25 0.562 1.25 1.25 1.25zM34 18c0 3.219-4.453 4.5-7 4.5s-7-1.281-7-4.5v0c0-0.609 5.453-10.266 6.125-11.484 0.172-0.313 0.516-0.516 0.875-0.516s0.703 0.203 0.875 0.516c0.672 1.219 6.125 10.875 6.125 11.484v0zM14 18c0 3.219-4.453 4.5-7 4.5s-7-1.281-7-4.5v0c0-0.609 5.453-10.266 6.125-11.484 0.172-0.313 0.516-0.516 0.875-0.516s0.703 0.203 0.875 0.516c0.672 1.219 6.125 10.875 6.125 11.484z"></path>
</symbol>
<symbol id="icon-american-sign-language-interpreting" viewBox="0 0 36 28">
<path d="M16.125 15c-0.547-0.016-1.062-0.328-1.313-0.859-0.344-0.703-1.031-1.141-1.813-1.141-1.109 0-2 0.891-2 2 0 0.531 0.187 1.047 0.562 1.391l0.156 0.125c0.344 0.313 0.797 0.484 1.281 0.484 0.781 0 1.469-0.438 1.813-1.141 0.25-0.531 0.766-0.844 1.313-0.859zM25 13c0-0.531-0.187-1.047-0.562-1.391l-0.156-0.125c-0.344-0.313-0.797-0.484-1.281-0.484-0.781 0-1.469 0.438-1.813 1.141-0.25 0.531-0.766 0.844-1.313 0.859 0.547 0.016 1.062 0.328 1.313 0.859 0.344 0.703 1.031 1.141 1.813 1.141 1.109 0 2-0.891 2-2zM18.344 9.547c-0.359 0.734-1.266 1.047-2 0.688-0.656-0.328-1.359-0.484-2.094-0.484-0.547 0-1.062 0.094-1.547 0.266 0.094 0 0.203-0.016 0.297-0.016 1.922 0 3.687 1.125 4.516 2.859 0.359 0.75 0.031 1.641-0.719 2-0.187 0.094-0.391 0.141-0.609 0.141 0.219 0 0.422 0.047 0.609 0.141 0.75 0.359 1.078 1.25 0.719 2-0.828 1.734-2.594 2.859-4.516 2.859v0h-0.094c-0.234-0.031-0.453-0.047-0.688-0.063l-4.531-0.422-3.734 1.875c-0.156 0.078-0.297 0.109-0.453 0.109-0.359 0-0.719-0.203-0.891-0.547l-2.5-5c-0.234-0.484-0.063-1.062 0.391-1.328l3.266-1.859 2.312-4.172c0.359-3.219 1.953-6.172 4.484-8.25 0.641-0.531 1.594-0.438 2.109 0.203 0.531 0.641 0.438 1.578-0.203 2.109-0.703 0.594-1.328 1.266-1.828 2 1.219-0.828 2.625-1.391 4.172-1.578 0.828-0.109 1.578 0.469 1.672 1.297 0.109 0.828-0.469 1.578-1.297 1.672-0.906 0.109-1.75 0.422-2.484 0.859 0.5-0.109 1.016-0.156 1.547-0.156 1.188 0 2.344 0.266 3.406 0.781 0.75 0.375 1.062 1.266 0.688 2.016zM33.391 7.047l2.5 5c0.234 0.484 0.063 1.062-0.391 1.328l-3.266 1.859-2.312 4.172c-0.359 3.219-1.953 6.172-4.484 8.25-0.281 0.234-0.625 0.344-0.953 0.344-0.438 0-0.859-0.187-1.156-0.547-0.531-0.641-0.438-1.578 0.203-2.109 0.703-0.594 1.328-1.266 1.828-2-1.219 0.828-2.625 1.391-4.172 1.578-0.063 0.016-0.125 0.016-0.187 0.016-0.75 0-1.391-0.562-1.484-1.313-0.109-0.828 0.469-1.578 1.297-1.672 0.906-0.109 1.75-0.422 2.484-0.859-0.5 0.109-1.016 0.156-1.547 0.156-1.188 0-2.344-0.266-3.406-0.781-0.75-0.375-1.062-1.266-0.688-2.016 0.359-0.734 1.266-1.047 2-0.688 0.656 0.328 1.359 0.484 2.094 0.484 0.547 0 1.062-0.094 1.547-0.266-0.094 0-0.203 0.016-0.297 0.016-1.922 0-3.687-1.125-4.516-2.859-0.359-0.75-0.031-1.641 0.719-2 0.187-0.094 0.391-0.141 0.609-0.141-0.219 0-0.422-0.047-0.609-0.141-0.75-0.359-1.078-1.25-0.719-2 0.828-1.734 2.594-2.859 4.516-2.859v0h0.109c0.219 0.031 0.438 0.047 0.656 0.063l4.547 0.422 3.734-1.875c0.156-0.078 0.297-0.109 0.453-0.109 0.359 0 0.719 0.203 0.891 0.547z"></path>
</symbol>
<symbol id="icon-sign-language" viewBox="0 0 26 28">
<path d="M12.984 10.516c0.328 0 0.641 0.094 0.922 0.281l3.469 2.312c0.641 0.422 1.219 0.938 1.719 1.516l2.281 2.656c0.391 0.453 0.562 1.062 0.453 1.656l-1.125 6.453c-0.125 0.656-0.656 1.156-1.328 1.234l-8.234 0.875-5.5 0.5h-0.141c-0.812 0-1.5-0.656-1.5-1.5 0-0.781 0.656-1.406 1.437-1.5l4.062-0.5h-7c-0.859 0-1.547-0.719-1.5-1.578 0.047-0.812 0.766-1.422 1.578-1.422l6.906-0.016-8.141-1c-0.844-0.094-1.453-0.859-1.328-1.719 0.125-0.75 0.812-1.25 1.563-1.25h0.156l7.516 0.938-5.484-1.469c-0.781-0.203-1.375-0.922-1.25-1.719 0.125-0.75 0.766-1.266 1.484-1.266 0.109 0 0.203 0.016 0.313 0.031l7 1.5 3.391 0.578c0.031 0 0.063 0.016 0.094 0.016 0.469 0 0.703-0.641 0.281-0.922l-2.906-1.953c-0.719-0.484-0.891-1.453-0.375-2.141 0.281-0.391 0.734-0.594 1.188-0.594zM11.891 13.672l2.906 1.953-3.406-0.578-0.078-0.031-0.562-0.594-3.719-4.094c-0.031-0.031-0.047-0.078-0.078-0.109-0.484-0.641-0.375-1.578 0.297-2.094 0.625-0.484 1.516-0.328 2.063 0.25l2.219 2.297c-0.047 0.047-0.094 0.078-0.141 0.125-0.328 0.453-0.453 1-0.359 1.547 0.094 0.531 0.406 1.016 0.859 1.328zM25.75 6.578l0.234 4.156c0.047 0.766-0.016 1.547-0.172 2.297l-0.75 3.422c-0.125 0.594-0.5 1.078-1.047 1.359l-1.656 0.844c0.016-0.625-0.187-1.219-0.609-1.703l-2.281-2.656c-0.531-0.609-1.141-1.156-1.828-1.609l-3.469-2.312c-0.344-0.234-0.75-0.359-1.188-0.359-0.531 0-1.016 0.219-1.375 0.578l-3.672-4.875c-0.516-0.688-0.359-1.656 0.359-2.141 0.672-0.469 1.594-0.25 2.094 0.406l4.156 5.5-4.094-7.109c-0.438-0.734-0.187-1.687 0.578-2.094 0.719-0.375 1.625-0.078 2.031 0.625l3.766 6.563-2.125-5.266c-0.297-0.75-0.094-1.656 0.625-2.031 0.766-0.406 1.703-0.078 2.063 0.703l3.016 6.484 1.578 3.063c0.25 0.484 0.984 0.281 0.953-0.25l-0.187-3.5c-0.047-0.859 0.625-1.578 1.484-1.594 0.812 0 1.469 0.688 1.516 1.5z"></path>
</symbol>
<symbol id="icon-creative-commons-noncommercial-us" viewBox="0 0 20 20">
<path d="M9.988 0.4c2.691 0 4.966 0.928 6.825 2.784s2.787 4.128 2.787 6.816-0.913 4.936-2.739 6.744c-1.939 1.904-4.23 2.856-6.873 2.856-2.611 0-4.862-0.944-6.752-2.832s-2.835-4.144-2.835-6.768 0.945-4.896 2.835-6.816c1.842-1.856 4.093-2.784 6.752-2.784zM2.56 7.421c-0.287 0.81-0.43 1.67-0.43 2.579 0 2.128 0.777 3.968 2.331 5.52s3.404 2.328 5.551 2.328c2.147 0 4.013-0.784 5.599-2.352 0.531-0.513 0.968-1.073 1.311-1.68l-3.619-1.612c-0.246 1.218-1.331 2.040-2.643 2.137v1.48h-1.102v-1.48c-1.078-0.012-2.118-0.453-2.914-1.15l1.322-1.333c0.637 0.599 1.273 0.869 2.143 0.869 0.563 0 1.188-0.22 1.188-0.954 0-0.26-0.101-0.441-0.26-0.577l-2.055-0.915c-0.564-0.251-1.041-0.464-1.521-0.677l-4.903-2.183zM10.012 2.128c-2.179 0-4.021 0.768-5.527 2.304-0.41 0.413-0.766 0.846-1.069 1.296l3.67 1.634c0.332-1.018 1.299-1.635 2.474-1.704v-1.48h1.102v1.48c0.759 0.037 1.592 0.245 2.412 0.881l-1.261 1.296c-0.465-0.33-1.053-0.563-1.641-0.563-0.477 0-1.151 0.147-1.151 0.746 0 0.091 0.030 0.172 0.086 0.244l2.058 0.917c0.531 0.236 1.039 0.462 1.542 0.686l4.919 2.19c0.163-0.645 0.244-1.33 0.244-2.055 0-2.192-0.769-4.048-2.307-5.568-1.522-1.536-3.372-2.304-5.551-2.304z"></path>
</symbol>
<symbol id="icon-colours" viewBox="0 0 20 20">
<path d="M3.179 5.998c-0.423-0.35-1.057-0.29-1.408 0.132l-1.277 1.539c-0.35 0.423-0.291 1.058 0.131 1.407l7.888 6.542-3.807-8.354-1.527-1.266zM7.013 2.683l-1.82 0.829c-0.499 0.228-0.722 0.825-0.495 1.324l4.25 9.325 0.213-9.179-0.822-1.804c-0.23-0.5-0.826-0.723-1.326-0.495zM14.211 2.887c0.013-0.55-0.427-1.010-0.976-1.023l-2-0.046c-0.549-0.013-1.009 0.427-1.022 0.976l-0.239 10.243 4.19-8.167 0.047-1.983zM19.191 3.837l-1.779-0.913c-0.489-0.25-1.096-0.055-1.347 0.434l-6.391 12.456c-0.251 0.489-0.056 1.096 0.434 1.347l1.779 0.913c0.489 0.251 1.095 0.056 1.346-0.433l6.391-12.456c0.251-0.491 0.056-1.097-0.433-1.348zM12.799 16.293c-0.252 0.492-0.855 0.686-1.346 0.434s-0.685-0.854-0.433-1.346 0.854-0.685 1.346-0.433c0.492 0.251 0.685 0.854 0.433 1.345z"></path>
</symbol>
<symbol id="icon-eraser1" viewBox="0 0 20 20">
<path d="M16.998 4.18l-3.154-2.425c-0.872-0.671-2.135-0.506-2.807 0.365l-8.4 10.897c-0.671 0.871-0.507 2.132 0.365 2.803l3.153 2.425c0.872 0.671 2.135 0.506 2.807-0.365l8.401-10.897c0.671-0.871 0.507-2.132-0.365-2.803zM8.548 16.467l-0.537 0.681c-0.152 0.197-0.385 0.31-0.639 0.31-0.124 0-0.309-0.029-0.485-0.164l-3.153-2.425c-0.168-0.129-0.275-0.317-0.303-0.53s0.028-0.422 0.157-0.589l0.537-0.681c0.152-0.197 0.385-0.311 0.64-0.311 0.124 0 0.309 0.029 0.485 0.164l3.154 2.425c0.168 0.129 0.275 0.317 0.303 0.53 0.026 0.213-0.030 0.422-0.159 0.59z"></path>
</symbol>
<symbol id="icon-language1" viewBox="0 0 20 20">
<path d="M19.753 10.909c-0.624-1.707-2.366-2.726-4.661-2.726-0.090 0-0.176 0.002-0.262 0.006l-0.016-2.063c0 0 3.41-0.588 3.525-0.607s0.133-0.119 0.109-0.231c-0.023-0.111-0.167-0.883-0.188-0.976-0.027-0.131-0.102-0.127-0.207-0.109s-3.25 0.461-3.25 0.461-0.012-1.953-0.013-2.078c-0.001-0.125-0.069-0.158-0.194-0.156s-0.92 0.014-1.025 0.016c-0.105 0.002-0.164 0.049-0.162 0.148s0.033 2.307 0.033 2.307-3.061 0.527-3.144 0.543c-0.084 0.014-0.17 0.053-0.151 0.143s0.19 1.094 0.208 1.172c0.018 0.080 0.072 0.129 0.188 0.107 0.115-0.019 2.924-0.504 2.924-0.504l0.035 2.018c-1.077 0.281-1.801 0.824-2.256 1.303-0.768 0.807-1.207 1.887-1.207 2.963 0 1.586 0.971 2.529 2.328 2.695 3.162 0.387 5.119-3.060 5.769-4.715 1.097 1.506 0.256 4.354-2.094 5.98-0.043 0.029-0.098 0.129-0.033 0.207s0.541 0.662 0.619 0.756c0.080 0.096 0.206 0.059 0.256 0.023 2.51-1.73 3.661-4.515 2.869-6.683zM12.367 14.097c-0.966-0.121-0.944-0.914-0.944-1.453 0-0.773 0.327-1.58 0.876-2.156 0.335-0.354 0.75-0.621 1.229-0.799l0.082 4.277c-0.385 0.131-0.799 0.185-1.243 0.131zM14.794 13.544l0.046-4.109c0.084-0.004 0.166-0.010 0.252-0.010 0.773 0 1.494 0.145 1.885 0.361s-1.023 2.713-2.183 3.758zM5.844 5.876c-0.030-0.094-0.103-0.145-0.196-0.145h-1.95c-0.093 0-0.165 0.051-0.194 0.144-0.412 1.299-3.48 10.99-3.496 11.041s-0.011 0.076 0.062 0.076h1.733c0.075 0 0.099-0.023 0.114-0.072 0.015-0.051 1.008-3.318 1.008-3.318h3.496c0 0 0.992 3.268 1.008 3.318s0.039 0.072 0.113 0.072h1.734c0.072 0 0.078-0.025 0.062-0.076-0.014-0.050-3.083-9.741-3.494-11.040zM3.226 12.194l1.447-5.25 1.447 5.25h-2.894z"></path>
</symbol>
<symbol id="icon-office" viewBox="0 0 32 32">
<path d="M0 32h16v-32h-16v32zM10 4h4v4h-4v-4zM10 12h4v4h-4v-4zM10 20h4v4h-4v-4zM2 4h4v4h-4v-4zM2 12h4v4h-4v-4zM2 20h4v4h-4v-4zM18 10h14v2h-14zM18 32h4v-8h6v8h4v-18h-14z"></path>
</symbol>
<symbol id="icon-bullhorn1" viewBox="0 0 32 32">
<path d="M32 13.414c0-6.279-1.837-11.373-4.109-11.413 0.009-0 0.018-0.001 0.027-0.001h-2.592c0 0-6.088 4.573-14.851 6.367-0.268 1.415-0.438 3.102-0.438 5.047s0.171 3.631 0.438 5.047c8.763 1.794 14.851 6.367 14.851 6.367h2.592c-0.009 0-0.018-0.001-0.027-0.001 2.272-0.040 4.109-5.134 4.109-11.413zM27.026 23.102c-0.293 0-0.61-0.304-0.773-0.486-0.395-0.439-0.775-1.124-1.1-1.979-0.727-1.913-1.127-4.478-1.127-7.223s0.4-5.309 1.127-7.223c0.325-0.855 0.705-1.54 1.1-1.979 0.163-0.182 0.48-0.486 0.773-0.486s0.61 0.304 0.773 0.486c0.395 0.439 0.775 1.124 1.1 1.979 0.727 1.913 1.127 4.479 1.127 7.223s-0.4 5.309-1.127 7.223c-0.325 0.855-0.705 1.54-1.1 1.979-0.163 0.181-0.48 0.486-0.773 0.486zM7.869 13.414c0-1.623 0.119-3.201 0.345-4.659-1.48 0.205-2.779 0.323-4.386 0.323-2.096 0-2.096 0-2.096 0l-1.733 2.959v2.755l1.733 2.959c0 0 0 0 2.096 0 1.606 0 2.905 0.118 4.386 0.323-0.226-1.458-0.345-3.036-0.345-4.659zM11.505 20.068l-4-0.766 2.558 10.048c0.132 0.52 0.648 0.782 1.146 0.583l3.705-1.483c0.498-0.199 0.698-0.749 0.444-1.221l-3.853-7.161zM27.026 17.148c-0.113 0-0.235-0.117-0.298-0.187-0.152-0.169-0.299-0.433-0.424-0.763-0.28-0.738-0.434-1.726-0.434-2.784s0.154-2.046 0.434-2.784c0.125-0.33 0.272-0.593 0.424-0.763 0.063-0.070 0.185-0.187 0.298-0.187s0.235 0.117 0.298 0.187c0.152 0.169 0.299 0.433 0.424 0.763 0.28 0.737 0.434 1.726 0.434 2.784s-0.154 2.046-0.434 2.784c-0.125 0.33-0.272 0.593-0.424 0.763-0.063 0.070-0.185 0.187-0.298 0.187z"></path>
</symbol>
<symbol id="icon-users1" viewBox="0 0 36 32">
<path d="M24 24.082v-1.649c2.203-1.241 4-4.337 4-7.432 0-4.971 0-9-6-9s-6 4.029-6 9c0 3.096 1.797 6.191 4 7.432v1.649c-6.784 0.555-12 3.888-12 7.918h28c0-4.030-5.216-7.364-12-7.918z"></path>
<path d="M10.225 24.854c1.728-1.13 3.877-1.989 6.243-2.513-0.47-0.556-0.897-1.176-1.265-1.844-0.95-1.726-1.453-3.627-1.453-5.497 0-2.689 0-5.228 0.956-7.305 0.928-2.016 2.598-3.265 4.976-3.734-0.529-2.39-1.936-3.961-5.682-3.961-6 0-6 4.029-6 9 0 3.096 1.797 6.191 4 7.432v1.649c-6.784 0.555-12 3.888-12 7.918h8.719c0.454-0.403 0.956-0.787 1.506-1.146z"></path>
</symbol>
<symbol id="icon-user-tie" viewBox="0 0 32 32">
<path d="M10 6c0-3.314 2.686-6 6-6s6 2.686 6 6c0 3.314-2.686 6-6 6s-6-2.686-6-6zM24.002 14h-1.107l-6.222 12.633 2.327-11.633-3-3-3 3 2.327 11.633-6.222-12.633h-1.107c-3.998 0-3.998 2.687-3.998 6v10h24v-10c0-3.313 0-6-3.998-6z"></path>
</symbol>
<symbol id="icon-hammer" viewBox="0 0 32 32">
<path d="M31.562 25.905l-9.423-9.423c-0.583-0.583-1.538-0.583-2.121 0l-0.707 0.707-5.75-5.75 9.439-9.439h-10l-4.439 4.439-0.439-0.439h-2.121v2.121l0.439 0.439-6.439 6.439 5 5 6.439-6.439 5.75 5.75-0.707 0.707c-0.583 0.583-0.583 1.538 0 2.121l9.423 9.423c0.583 0.583 1.538 0.583 2.121 0l3.535-3.535c0.583-0.583 0.583-1.538 0-2.121z"></path>
</symbol>
<symbol id="icon-briefcase1" viewBox="0 0 32 32">
<path d="M30 8h-8v-2c0-1.1-0.9-2-2-2h-8c-1.1 0-2 0.9-2 2v2h-8c-1.1 0-2 0.9-2 2v18c0 1.1 0.9 2 2 2h28c1.1 0 2-0.9 2-2v-18c0-1.1-0.9-2-2-2zM12 6.004c0.001-0.001 0.002-0.003 0.004-0.004h7.993c0.001 0.001 0.003 0.002 0.004 0.004v1.996h-8v-1.996zM30 16h-4v3c0 0.55-0.45 1-1 1h-2c-0.55 0-1-0.45-1-1v-3h-12v3c0 0.55-0.45 1-1 1h-2c-0.55 0-1-0.45-1-1v-3h-4v-2h28v2z"></path>
</symbol>
<symbol id="icon-sphere" viewBox="0 0 32 32">
<path d="M15 2c-8.284 0-15 6.716-15 15s6.716 15 15 15c8.284 0 15-6.716 15-15s-6.716-15-15-15zM23.487 22c0.268-1.264 0.437-2.606 0.492-4h3.983c-0.104 1.381-0.426 2.722-0.959 4h-3.516zM6.513 12c-0.268 1.264-0.437 2.606-0.492 4h-3.983c0.104-1.381 0.426-2.722 0.959-4h3.516zM21.439 12c0.3 1.28 0.481 2.62 0.54 4h-5.979v-4h5.439zM16 10v-5.854c0.456 0.133 0.908 0.355 1.351 0.668 0.831 0.586 1.625 1.488 2.298 2.609 0.465 0.775 0.867 1.638 1.203 2.578h-4.852zM10.351 7.422c0.673-1.121 1.467-2.023 2.298-2.609 0.443-0.313 0.895-0.535 1.351-0.668v5.854h-4.852c0.336-0.94 0.738-1.803 1.203-2.578zM14 12v4h-5.979c0.059-1.38 0.24-2.72 0.54-4h5.439zM2.997 22c-0.533-1.278-0.854-2.619-0.959-4h3.983c0.055 1.394 0.224 2.736 0.492 4h-3.516zM8.021 18h5.979v4h-5.439c-0.3-1.28-0.481-2.62-0.54-4zM14 24v5.854c-0.456-0.133-0.908-0.355-1.351-0.668-0.831-0.586-1.625-1.488-2.298-2.609-0.465-0.775-0.867-1.638-1.203-2.578h4.852zM19.649 26.578c-0.673 1.121-1.467 2.023-2.298 2.609-0.443 0.312-0.895 0.535-1.351 0.668v-5.854h4.852c-0.336 0.94-0.738 1.802-1.203 2.578zM16 22v-4h5.979c-0.059 1.38-0.24 2.72-0.54 4h-5.439zM23.98 16c-0.055-1.394-0.224-2.736-0.492-4h3.516c0.533 1.278 0.855 2.619 0.959 4h-3.983zM25.958 10h-2.997c-0.582-1.836-1.387-3.447-2.354-4.732 1.329 0.636 2.533 1.488 3.585 2.54 0.671 0.671 1.261 1.404 1.766 2.192zM5.808 7.808c1.052-1.052 2.256-1.904 3.585-2.54-0.967 1.285-1.771 2.896-2.354 4.732h-2.997c0.504-0.788 1.094-1.521 1.766-2.192zM4.042 24h2.997c0.583 1.836 1.387 3.447 2.354 4.732-1.329-0.636-2.533-1.488-3.585-2.54-0.671-0.671-1.261-1.404-1.766-2.192zM24.192 26.192c-1.052 1.052-2.256 1.904-3.585 2.54 0.967-1.285 1.771-2.896 2.354-4.732h2.997c-0.504 0.788-1.094 1.521-1.766 2.192z"></path>
</symbol>
<symbol id="icon-steam2" viewBox="0 0 32 32">
<path d="M9.498 26.125c0.848 0 1.681-0.41 2.187-1.169 0.804-1.206 0.478-2.836-0.728-3.64l-2.065-1.377c0.353-0.096 0.725-0.149 1.109-0.149 2.325 0 4.209 1.884 4.209 4.209s-1.885 4.209-4.209 4.209c-2.263 0-4.108-1.785-4.205-4.024l2.249 1.499c0.448 0.298 0.953 0.441 1.454 0.441zM26.667 0c2.934 0 5.333 2.4 5.333 5.334v21.332c0 2.936-2.399 5.334-5.333 5.334h-21.333c-2.934 0-5.334-2.398-5.334-5.334v-6.345l3.792 2.528c-0.364 1.974 0.217 4.088 1.744 5.615 2.466 2.466 6.463 2.466 8.929 0 1.515-1.515 2.098-3.607 1.752-5.568l7.783-6.968c1.445-0.207 2.838-0.867 3.95-1.979 2.734-2.734 2.734-7.166 0-9.899s-7.166-2.734-9.9 0c-1.112 1.112-1.771 2.505-1.979 3.95v0l-6.397 9.695c-0.995 0.051-1.981 0.336-2.866 0.856l-6.808-4.539v-8.678c0-2.934 2.4-5.334 5.334-5.334h21.333zM28 9c0-2.761-2.239-5-5-5s-5 2.239-5 5 2.239 5 5 5 5-2.239 5-5zM20 9c0-1.657 1.343-3 3-3s3 1.343 3 3-1.343 3-3 3-3-1.343-3-3z"></path>
</symbol>
<symbol id="icon-safari" viewBox="0 0 32 32">
<path d="M16 0c-8.838 0-16 7.162-16 16s7.162 16 16 16 16-7.163 16-16-7.163-16-16-16zM29.95 14.775l-0.031-0.331c0.006 0.113 0.019 0.219 0.031 0.331zM27.762 8.4l-0.225-0.338c0.075 0.113 0.15 0.225 0.225 0.338zM26.894 7.206l-0.137-0.169c0.050 0.056 0.094 0.112 0.137 0.169zM24.956 5.237l-0.169-0.138c0.063 0.050 0.113 0.094 0.169 0.138zM23.938 4.463l-0.337-0.225c0.113 0.075 0.225 0.15 0.337 0.225zM17.556 2.087l-0.337-0.031c0.113 0.006 0.225 0.019 0.337 0.031zM14.775 2.050l-0.338 0.031c0.113-0.006 0.225-0.019 0.338-0.031zM8.4 4.237l-0.338 0.225c0.113-0.075 0.225-0.15 0.338-0.225zM7.206 5.106l-0.162 0.131c0.056-0.044 0.106-0.088 0.162-0.131zM5.237 7.044l-0.138 0.169c0.050-0.056 0.094-0.112 0.138-0.169zM4.463 8.063l-0.225 0.338c0.075-0.113 0.15-0.225 0.225-0.338zM2.087 14.444l-0.031 0.338c0.006-0.113 0.019-0.225 0.031-0.338zM2.050 17.225l0.031 0.337c-0.006-0.113-0.019-0.225-0.031-0.337zM4.237 23.594l0.225 0.337c-0.075-0.106-0.15-0.219-0.225-0.337zM4.5 23.988l2.494-1.669-0.275-0.419-2.494 1.669c-1.131-1.756-1.875-3.775-2.125-5.95l1.494-0.15-0.050-0.5-1.494 0.15c-0.025-0.288-0.038-0.581-0.044-0.875h3v-0.5h-3c0.006-0.294 0.019-0.581 0.044-0.875l1.494 0.144 0.050-0.5-1.494-0.144c0.25-2.175 1-4.194 2.131-5.95l2.494 1.669 0.275-0.419-2.5-1.656c0.169-0.237 0.338-0.475 0.519-0.7l1.156 0.95 0.319-0.388-1.156-0.95c0.188-0.225 0.388-0.438 0.588-0.65l2.119 2.119 0.356-0.356-2.119-2.119c0.213-0.2 0.425-0.4 0.644-0.588l0.95 1.162 0.387-0.319-0.95-1.156c0.231-0.181 0.463-0.356 0.7-0.525l1.669 2.494 0.419-0.275-1.669-2.494c1.756-1.131 3.775-1.875 5.95-2.125l0.15 1.494 0.5-0.050-0.15-1.494c0.287-0.025 0.581-0.038 0.875-0.044v3h0.5v-3c0.294 0.006 0.581 0.019 0.875 0.044l-0.144 1.494 0.5 0.050 0.144-1.494c2.175 0.25 4.194 1 5.95 2.131l-1.669 2.494 0.419 0.275 1.669-2.494c0.238 0.169 0.475 0.338 0.7 0.519l-0.95 1.156 0.387 0.319 0.95-1.156c0.225 0.188 0.438 0.388 0.65 0.588l-0.8 0.781-10.938 7.294-7.294 10.937-0.781 0.781c-0.2-0.212-0.4-0.425-0.588-0.644l1.156-0.95-0.319-0.387-1.156 0.95c-0.181-0.225-0.35-0.462-0.519-0.7zM5.237 24.956c-0.044-0.056-0.088-0.106-0.131-0.163l0.131 0.163zM7.044 26.762l0.162 0.131c-0.056-0.044-0.106-0.087-0.162-0.131zM8.063 27.531l0.338 0.225c-0.113-0.069-0.225-0.144-0.338-0.225zM14.444 29.913l0.338 0.031c-0.113-0.006-0.225-0.019-0.338-0.031zM17.225 29.95l0.331-0.031c-0.113 0.006-0.219 0.019-0.331 0.031zM23.6 27.762l0.337-0.225c-0.113 0.075-0.225 0.15-0.337 0.225zM24.794 26.894l0.169-0.137c-0.056 0.050-0.113 0.094-0.169 0.137zM25.887 25.913l0.025-0.025c-0.006 0.006-0.019 0.019-0.025 0.025zM26.762 24.956l0.137-0.169c-0.050 0.056-0.094 0.113-0.137 0.169zM26.981 24.688l-1.156-0.95-0.319 0.387 1.156 0.95c-0.188 0.225-0.387 0.438-0.587 0.65l-2.119-2.119-0.356 0.356 2.119 2.119c-0.212 0.2-0.425 0.4-0.644 0.587l-0.95-1.163-0.387 0.319 0.95 1.156c-0.231 0.181-0.462 0.356-0.7 0.525l-1.669-2.494-0.419 0.275 1.669 2.494c-1.756 1.131-3.775 1.875-5.95 2.125l-0.15-1.494-0.5 0.050 0.15 1.494c-0.288 0.025-0.581 0.038-0.875 0.044v-3h-0.5v3c-0.294-0.006-0.581-0.019-0.875-0.044l0.144-1.494-0.5-0.050-0.144 1.494c-2.175-0.25-4.194-1-5.95-2.131l1.669-2.494-0.419-0.275-1.656 2.494c-0.237-0.169-0.475-0.337-0.7-0.519l0.95-1.156-0.388-0.319-0.95 1.156c-0.225-0.188-0.438-0.387-0.65-0.587l0.787-0.781 10.937-7.294 7.294-10.938 0.781-0.781c0.2 0.213 0.4 0.425 0.587 0.644l-1.156 0.95 0.319 0.387 1.156-0.95c0.181 0.231 0.356 0.463 0.525 0.7l-2.494 1.669 0.275 0.419 2.494-1.669c1.131 1.756 1.875 3.775 2.125 5.95l-1.494 0.15 0.050 0.5 1.494-0.15c0.025 0.287 0.038 0.581 0.044 0.875h-3v0.5h3c-0.006 0.294-0.019 0.581-0.044 0.875l-1.494-0.144-0.050 0.5 1.494 0.144c-0.25 2.175-1 4.194-2.131 5.95l-2.494-1.669-0.275 0.419 2.494 1.669c-0.163 0.225-0.337 0.456-0.519 0.688zM29.95 17.219c-0.012 0.113-0.019 0.225-0.031 0.337l0.031-0.337zM27.762 23.6c-0.075 0.113-0.15 0.225-0.225 0.337l0.225-0.337z"></path>
<path d="M13.517 2.221l0.585 2.942-0.49 0.098-0.585-2.942 0.49-0.098z"></path>
<path d="M18.489 29.78l-0.585-2.942 0.49-0.098 0.585 2.942-0.49 0.098z"></path>
<path d="M12.176 2.528l0.436 1.435-0.478 0.145-0.436-1.435 0.478-0.145z"></path>
<path d="M19.826 29.465l-0.436-1.435 0.478-0.145 0.436 1.435-0.478 0.145z"></path>
<path d="M10.875 2.972l1.148 2.772-0.462 0.191-1.148-2.772 0.462-0.191z"></path>
<path d="M21.129 29.030l-1.148-2.772 0.462-0.191 1.148 2.772-0.462 0.191z"></path>
<path d="M9.176 3.771l0.441-0.236 0.707 1.323-0.441 0.236-0.707-1.323z"></path>
<path d="M22.816 28.228l-0.441 0.236-0.707-1.323 0.441-0.236 0.707 1.323z"></path>
<path d="M3.769 9.182l1.323 0.707-0.236 0.441-1.323-0.707 0.236-0.441z"></path>
<path d="M28.226 22.819l-1.323-0.707 0.236-0.441 1.323 0.707-0.236 0.441z"></path>
<path d="M5.744 12.019l-2.772-1.148 0.191-0.462 2.772 1.148-0.191 0.462z"></path>
<path d="M26.26 19.978l2.772 1.148-0.191 0.462-2.772-1.148 0.191-0.462z"></path>
<path d="M2.673 11.7l1.436 0.435-0.145 0.479-1.436-0.435 0.145-0.479z"></path>
<path d="M29.322 20.302l-1.436-0.435 0.145-0.479 1.436 0.435-0.145 0.479z"></path>
<path d="M2.315 13.024l2.942 0.585-0.098 0.49-2.942-0.585 0.098-0.49z"></path>
<path d="M29.679 18.976l-2.942-0.585 0.098-0.49 2.942 0.585-0.098 0.49z"></path>
<path d="M2.218 18.486l2.942-0.585 0.098 0.49-2.942 0.585-0.098-0.49z"></path>
<path d="M29.776 13.513l-2.942 0.585-0.098-0.49 2.942-0.585 0.098 0.49z"></path>
<path d="M2.53 19.829l1.435-0.436 0.145 0.478-1.435 0.436-0.145-0.478z"></path>
<path d="M29.468 12.178l-1.435 0.436-0.145-0.478 1.435-0.436 0.145 0.478z"></path>
<path d="M3.161 21.591l-0.191-0.462 2.772-1.148 0.191 0.462-2.772 1.148z"></path>
<path d="M28.837 10.413l0.191 0.462-2.772 1.148-0.191-0.462 2.772-1.148z"></path>
<path d="M3.776 22.821l-0.236-0.441 1.323-0.707 0.236 0.441-1.323 0.707z"></path>
<path d="M28.233 9.181l0.236 0.441-1.323 0.707-0.236-0.441 1.323-0.707z"></path>
<path d="M9.621 28.464l-0.441-0.236 0.707-1.323 0.441 0.236-0.707 1.323z"></path>
<path d="M22.377 3.534l0.441 0.236-0.707 1.323-0.441-0.236 0.707-1.323z"></path>
<path d="M10.415 28.837l1.148-2.772 0.462 0.191-1.148 2.772-0.462-0.191z"></path>
<path d="M21.59 3.16l-1.148 2.772-0.462-0.191 1.148-2.772 0.462 0.191z"></path>
<path d="M12.176 29.47l-0.478-0.145 0.435-1.435 0.478 0.145-0.435 1.435z"></path>
<path d="M19.823 2.528l0.479 0.145-0.435 1.436-0.479-0.145 0.435-1.436z"></path>
<path d="M13.515 29.776l-0.49-0.098 0.585-2.942 0.49 0.098-0.585 2.942z"></path>
<path d="M18.485 2.218l0.49 0.098-0.585 2.942-0.49-0.098 0.585-2.942z"></path>
</symbol>
</defs>
</svg>
